<?xml version="1.0" encoding="utf-8"?>
<!-- Generator: Adobe Illustrator 24.1.0, SVG Export Plug-In . SVG Version: 6.00 Build 0)  -->
<svg version="1.1" id="Слой_1" xmlns="http://www.w3.org/2000/svg" xmlns:xlink="http://www.w3.org/1999/xlink" x="0px" y="0px"
	 viewBox="0 0 25 25" style="enable-background:new 0 0 25 25;" xml:space="preserve">
<style type="text/css">
	.st0{fill-rule:evenodd;clip-rule:evenodd;fill:#EBEBEB;}
	.st1{fill:#6A6B7F;}
	.st2{fill:#7D5024;}
	.st3{fill-rule:evenodd;clip-rule:evenodd;fill:#F7F7F1;}
	.st4{fill-rule:evenodd;clip-rule:evenodd;fill:#3A559F;}
	.st5{fill:#FFFFFF;}
	.st6{fill-rule:evenodd;clip-rule:evenodd;fill:#553B39;}
	.st7{fill:#E83D2D;}
	.st8{fill:#2CAFC7;}
	.st9{fill:#FECF33;}
	.st10{fill-rule:evenodd;clip-rule:evenodd;fill:#E60004;}
	.st11{fill:#EBEBEB;}
	.st12{fill-rule:evenodd;clip-rule:evenodd;fill:#6A6B80;}
	.st13{fill:#6A6B80;}
</style>
<g>
	<circle class="st0" cx="12.5" cy="12.5" r="12.5"/>
</g>
<g>
	<path class="st1" d="M5.7,17.3c0-3.2,0-6.4,0-9.5c0,0,0,0,0,0c1.4,0,2.8-0.1,4.3,0.1c0.3,0,0.6,0.2,0.9,0.3
		c1.6,0.7,1.5,2.6,0.5,3.5c-0.3,0.2-0.6,0.4-0.9,0.6c0.1,0,0.3,0.1,0.5,0.1c1.7,0.5,2.2,2.6,1,4c-0.6,0.6-1.3,0.9-2.1,1
		C8.4,17.3,7.1,17.3,5.7,17.3C5.7,17.3,5.7,17.3,5.7,17.3z M7.6,15.8c0.5,0,1,0,1.5,0c0.2,0,0.5-0.1,0.7-0.2
		c0.5-0.2,0.8-0.7,0.8-1.3c0-0.6-0.3-1.1-1-1.2c-0.7-0.1-1.3-0.1-2-0.2C7.6,14,7.6,14.9,7.6,15.8z M7.6,9.1c0,0.9,0,1.7,0,2.6
		c0.5,0,1,0,1.5-0.1c0.2,0,0.3-0.1,0.5-0.2c0.5-0.3,0.6-0.8,0.5-1.3C10,9.6,9.7,9.3,9.2,9.3C8.7,9.2,8.1,9.2,7.6,9.1z"/>
	<path class="st1" d="M13.1,17.3c0-3.2,0-6.4,0-9.5c0,0,0,0,0,0c1.4,0,2.8-0.1,4.3,0.1c0.3,0,0.6,0.2,0.9,0.3
		c1.6,0.7,1.5,2.6,0.5,3.5c-0.3,0.2-0.6,0.4-0.9,0.6c0.1,0,0.3,0.1,0.5,0.1c1.7,0.5,2.2,2.6,1,4c-0.6,0.6-1.3,0.9-2.1,1
		C15.9,17.3,14.5,17.3,13.1,17.3C13.2,17.3,13.2,17.3,13.1,17.3z M15,15.8c0.5,0,1,0,1.5,0c0.2,0,0.5-0.1,0.7-0.2
		c0.5-0.2,0.8-0.7,0.8-1.3c0-0.6-0.3-1.1-1-1.2c-0.7-0.1-1.3-0.1-2-0.2C15,14,15,14.9,15,15.8z M15,9.1c0,0.9,0,1.7,0,2.6
		c0.5,0,1,0,1.5-0.1c0.2,0,0.3-0.1,0.5-0.2c0.5-0.3,0.6-0.8,0.5-1.3c-0.1-0.5-0.4-0.8-0.9-0.8C16.1,9.2,15.6,9.2,15,9.1z"/>
</g>
</svg>
